<?xml version="1.0" encoding="UTF-8" standalone="no"?>
<!-- Created with Inkscape (http://www.inkscape.org/) -->

<svg
   width="213mm"
   height="184mm"
   viewBox="0 0 213 184"
   version="1.1"
   id="svg5"
   inkscape:version="1.2 (dc2aeda, 2022-05-15)"
   sodipodi:docname="white_stain.svg"
   xmlns:inkscape="http://www.inkscape.org/namespaces/inkscape"
   xmlns:sodipodi="http://sodipodi.sourceforge.net/DTD/sodipodi-0.dtd"
   xmlns="http://www.w3.org/2000/svg"
   xmlns:svg="http://www.w3.org/2000/svg">
  <sodipodi:namedview
     id="namedview7"
     pagecolor="#505050"
     bordercolor="#ffffff"
     borderopacity="1"
     inkscape:showpageshadow="0"
     inkscape:pageopacity="0"
     inkscape:pagecheckerboard="1"
     inkscape:deskcolor="#505050"
     inkscape:document-units="mm"
     showgrid="false"
     inkscape:zoom="0.52649411"
     inkscape:cx="537.51788"
     inkscape:cy="342.83384"
     inkscape:window-width="1364"
     inkscape:window-height="744"
     inkscape:window-x="0"
     inkscape:window-y="0"
     inkscape:window-maximized="1"
     inkscape:current-layer="layer1" />
  <defs
     id="defs2">
    <filter
       inkscape:collect="always"
       style="color-interpolation-filters:sRGB"
       id="filter856"
       x="-0.29468054"
       y="-0.44803772"
       width="1.576318"
       height="1.8762474">
      <feGaussianBlur
         inkscape:collect="always"
         stdDeviation="6.1429605"
         id="feGaussianBlur858" />
    </filter>
    <filter
       inkscape:collect="always"
       style="color-interpolation-filters:sRGB"
       id="filter856-3"
       x="-0.50885366"
       y="-0.77366583"
       width="2.0046642"
       height="2.5275038">
      <feGaussianBlur
         inkscape:collect="always"
         stdDeviation="10.814416"
         id="feGaussianBlur858-6" />
    </filter>
  </defs>
  <g
     inkscape:label="Layer 1"
     inkscape:groupmode="layer"
     id="layer1">
    <rect
       style="display:none;fill:#803500;fill-opacity:1;stroke:#ffffff;stroke-width:0.965;stroke-linecap:round;stroke-linejoin:bevel;stroke-dasharray:none;paint-order:markers fill stroke"
       id="rect308"
       width="210"
       height="183.01228"
       x="1.5875"
       y="0.52916664"
       ry="25.088678" />
    <rect
       style="display:none;fill:#000000;fill-opacity:1;stroke:#ffffff;stroke-width:1.0425;stroke-linecap:round;stroke-linejoin:bevel;stroke-dasharray:none;paint-order:markers fill stroke"
       id="rect308-3"
       width="210.0135"
       height="166.81474"
       x="1.5807496"
       y="16.733458"
       ry="22.8682" />
    <path
       style="display:none;fill:#000000;fill-opacity:1;stroke:#ffffff;stroke-width:0.889684;stroke-linecap:round;stroke-linejoin:bevel;stroke-dasharray:none;paint-order:markers fill stroke"
       id="path2553"
       sodipodi:type="arc"
       sodipodi:cx="106.58713"
       sodipodi:cy="29.598877"
       sodipodi:rx="107.07178"
       sodipodi:ry="20.723484"
       sodipodi:start="3.6832356"
       sodipodi:end="5.7418542"
       sodipodi:open="true"
       sodipodi:arc-type="arc"
       d="M 14.841302,18.914999 A 107.07178,20.723484 0 0 1 106.60382,8.8753932 107.07178,20.723484 0 0 1 198.35016,18.920537" />
    <path
       style="mix-blend-mode:normal;fill:none;stroke:#fdfdfd;stroke-width:1.365;stroke-linecap:butt;stroke-linejoin:miter;stroke-dasharray:none;stroke-opacity:1;filter:url(#filter856)"
       d="m 16.292513,59.768229 c 0,-1.320221 -0.05662,-2.641656 0,-3.960662 0.01991,-0.463872 0.171403,-0.91323 0.228993,-1.373944 0.08715,-0.697203 -0.26315,-0.549788 0.457971,-1.373928 0.960037,-1.097188 2.62427,-1.767562 3.892814,-2.2899 1.540255,-0.63422 2.497982,-0.915959 4.121807,-0.915959 0.668978,0 2.14602,0.02543 2.747865,0.457986 0.125066,0.08989 0.162833,0.265613 0.20664,0.413266 0.04033,0.135933 0.08741,0.313725 0,0.425368 -0.501166,0.640133 -1.08231,0.896763 -1.881573,1.19701 -0.141418,0.05312 -0.302652,-0.01249 -0.453201,0 -0.76045,0.0631 -1.514883,0.227073 -2.277946,0.226607 -1.628264,-0.0011 -4.047276,-0.851662 -4.786956,-2.488581 -0.118608,-0.262482 0,-0.576072 0,-0.864108 0,-0.607589 0.08617,-1.221322 0,-1.822772 -0.06846,-0.47787 -0.394171,-0.895414 -0.457971,-1.373929 -0.09079,-0.680945 0,-1.373944 0,-2.060916 0,-0.610632 -0.100388,-1.229574 0,-1.831898 0.625624,-3.753755 2.734006,-5.109472 5.953714,-6.182707 1.545468,-0.515154 1.894322,-0.457978 3.434829,-0.457978 0.228989,0 0.457981,0 0.686969,0 0.15266,0 0.325639,-0.0761 0.457973,0 0.121013,0.06959 -0.197419,0.197425 -0.296127,0.296135 -0.284094,0.284094 -0.521814,0.623787 -0.852281,0.852281 -0.421169,0.291203 -0.926342,0.438304 -1.373944,0.686973 -0.240577,0.133651 -0.429293,0.361304 -0.686965,0.457977 -0.812052,0.304665 -1.662069,0.307444 -2.482754,0.0083 -0.186247,-0.06788 -0.280341,-0.280342 -0.420512,-0.420513 -0.914452,-0.91445 -1.176608,-1.787946 -0.724307,-3.082224 0.467781,-1.338575 0.568091,-1.346049 1.287454,-2.065409 0.22899,-0.228989 0.392272,-0.552709 0.686972,-0.686964 1.940764,-0.884132 4.135328,-0.286197 6.172699,-0.455978 0.537866,-0.04482 1.064776,-0.187589 1.602915,-0.228983 0.761053,-0.05854 1.529736,-0.06911 2.2899,0 0.537514,0.04886 1.064776,0.187589 1.602914,0.228983 0.761053,0.05854 1.53039,-0.07595 2.2899,0 0.461989,0.0462 0.911239,0.190437 1.373929,0.228995 0.684593,0.05705 1.373933,0 2.0609,0 2.431825,0 0.759066,-0.08784 2.976856,0.228986 1.3e-5,0 0.457986,-3e-6 0.457989,0 0.569917,0.633259 -0.116224,1.186524 -0.586428,1.587468 -0.241977,0.206335 -0.460312,0.47556 -0.763209,0.57241 -0.326062,0.104259 -0.686906,-0.03924 -1.026975,0 -0.300487,0.03467 -0.579652,0.187283 -0.880348,0.220091 -1.781403,0.194366 -2.630694,-0.337664 -4.110649,-1.372433 -0.174662,-0.122121 -0.3014,-0.301398 -0.452099,-0.452096 -0.147889,-0.147889 -0.364707,-0.25 -0.443661,-0.44367 -0.08111,-0.198964 0.05362,-0.436522 0,-0.644583 -0.483793,-1.877103 -0.455226,-0.589198 -0.455226,-1.349581 0,-1.405171 -0.282305,-1.646957 1.129559,-2.665287 0.519155,-0.374448 1.885693,-0.528048 2.516388,-0.685722 1.312916,-0.328229 2.508351,-0.869808 3.892815,-0.915957 3.495929,-0.116529 7.03172,0 10.533499,0 0.992285,0 1.984571,0 2.976856,0 0.123857,0 1.674082,-0.07892 1.831914,0 0.246155,0.123077 0.466775,0.292876 0.686959,0.457979 0.08616,0.06461 0.189032,0.128231 0.228462,0.228449 0.04299,0.109249 -0.02119,0.236732 0,0.352204 0.02741,0.149268 0.120365,0.282013 0.143963,0.43193 0.07374,0.468479 -0.04452,1.141943 -0.3493,1.517752 -0.172509,0.212712 -0.407482,0.369056 -0.580967,0.580975 -0.557432,0.680934 -0.266081,0.620469 -0.894331,1.123018 -1.199299,0.959343 -0.167299,-0.03909 -1.346507,0.901259 -0.155652,0.124121 -0.250135,0.322381 -0.422315,0.422314 -0.08802,0.05109 -0.20542,-0.01945 -0.305316,0 -0.401963,0.0783 -0.578035,0.237607 -0.878059,-0.138792 -0.476131,-0.597331 -0.444966,-0.353968 -0.444966,-0.749107 0,-0.09944 0.03189,-0.204123 0,-0.298307 -0.07767,-0.22936 -0.238186,-0.424061 -0.321588,-0.651398 -0.366937,-1.00023 -0.0652,-1.625778 0.178716,-2.606786 0.0989,-0.397776 0.312293,-0.863644 0.722275,-1.081305 0.0095,-0.005 0.571439,0.0045 0.599832,0 0.894249,-0.142964 1.600969,-0.320703 2.544114,-0.182233 1.024297,0.150385 2.211826,0.585154 3.204231,0.915957 1.144942,0.38165 2.289884,0.763303 3.434829,1.144951 0.686966,0.228988 1.380368,0.439501 2.0609,0.686964 0.320805,0.116655 0.584793,0.375186 0.915956,0.457978 0.221797,0.05545 0.457245,0 0.685869,0"
       id="path299" />
    <path
       style="mix-blend-mode:normal;fill:none;stroke:#fdfdfd;stroke-width:1.365;stroke-linecap:butt;stroke-linejoin:miter;stroke-dasharray:none;stroke-opacity:1;filter:url(#filter856-3)"
       d="m 143.81037,142.22397 c 0,-1.32022 -0.0566,-2.64166 0,-3.96067 0.0199,-0.46387 0.17141,-0.91323 0.229,-1.37394 0.0872,-0.6972 -0.26315,-0.54979 0.45797,-1.37393 0.96003,-1.09719 2.62427,-1.76756 3.89281,-2.2899 1.54026,-0.63422 2.49798,-0.91596 4.12181,-0.91596 0.66898,0 2.14602,0.0254 2.74786,0.45799 0.12507,0.0899 0.16284,0.26561 0.20664,0.41327 0.0403,0.13593 0.0874,0.31372 0,0.42536 -0.50116,0.64014 -1.08231,0.89677 -1.88157,1.19701 -0.14142,0.0531 -0.30265,-0.0125 -0.4532,0 -0.76045,0.0631 -1.51488,0.22708 -2.27795,0.22661 -1.62826,-0.001 -4.04727,-0.85166 -4.78695,-2.48858 -0.11861,-0.26248 0,-0.57607 0,-0.86411 0,-0.60759 0.0862,-1.22132 0,-1.82277 -0.0685,-0.47787 -0.39417,-0.89541 -0.45797,-1.37393 -0.0908,-0.68094 0,-1.37394 0,-2.06092 0,-0.61063 -0.10039,-1.22957 0,-1.83189 0.62562,-3.75376 2.734,-5.10948 5.95371,-6.18271 1.54547,-0.51515 1.89432,-0.45798 3.43483,-0.45798 0.22899,0 0.45798,0 0.68697,0 0.15266,0 0.32564,-0.0761 0.45797,0 0.12101,0.0696 -0.19742,0.19743 -0.29613,0.29614 -0.28409,0.28409 -0.52181,0.62378 -0.85228,0.85228 -0.42117,0.2912 -0.92634,0.4383 -1.37394,0.68697 -0.24058,0.13365 -0.42929,0.3613 -0.68697,0.45798 -0.81205,0.30466 -1.66207,0.30744 -2.48275,0.008 -0.18625,-0.0679 -0.28034,-0.28034 -0.42051,-0.42052 -0.91445,-0.91445 -1.17661,-1.78794 -0.72431,-3.08222 0.46778,-1.33857 0.56809,-1.34605 1.28745,-2.06541 0.22899,-0.22899 0.39228,-0.55271 0.68698,-0.68696 1.94076,-0.88413 4.13532,-0.2862 6.1727,-0.45598 0.53786,-0.0448 1.06477,-0.18759 1.60291,-0.22898 0.76105,-0.0585 1.52974,-0.0691 2.2899,0 0.53751,0.0489 1.06478,0.18759 1.60291,0.22898 0.76106,0.0585 1.53039,-0.0759 2.2899,0 0.46199,0.0462 0.91124,0.19044 1.37393,0.22899 0.6846,0.057 1.37394,0 2.0609,0 2.43183,0 0.75907,-0.0878 2.97686,0.22899 1e-5,0 0.45799,0 0.45799,0 0.56992,0.63326 -0.11623,1.18652 -0.58643,1.58747 -0.24198,0.20633 -0.46031,0.47556 -0.76321,0.57241 -0.32606,0.10426 -0.6869,-0.0392 -1.02697,0 -0.30049,0.0347 -0.57966,0.18728 -0.88035,0.22009 -1.7814,0.19437 -2.6307,-0.33766 -4.11065,-1.37243 -0.17466,-0.12212 -0.3014,-0.3014 -0.4521,-0.4521 -0.14789,-0.14789 -0.36471,-0.25 -0.44366,-0.44367 -0.0811,-0.19896 0.0536,-0.43652 0,-0.64458 -0.48379,-1.87711 -0.45523,-0.5892 -0.45523,-1.34958 0,-1.40517 -0.2823,-1.64696 1.12956,-2.66529 0.51916,-0.37445 1.8857,-0.52805 2.51639,-0.68572 1.31292,-0.32823 2.50835,-0.86981 3.89282,-0.91596 3.49592,-0.11653 7.03172,0 10.53349,0 0.99229,0 1.98458,0 2.97686,0 0.12386,0 1.67408,-0.0789 1.83191,0 0.24616,0.12308 0.46678,0.29288 0.68696,0.45798 0.0862,0.0646 0.18904,0.12823 0.22847,0.22845 0.043,0.10925 -0.0212,0.23673 0,0.3522 0.0274,0.14927 0.12036,0.28202 0.14396,0.43193 0.0737,0.46848 -0.0445,1.14195 -0.3493,1.51775 -0.17251,0.21272 -0.40748,0.36906 -0.58097,0.58098 -0.55743,0.68093 -0.26608,0.62047 -0.89433,1.12302 -1.1993,0.95934 -0.1673,-0.0391 -1.34651,0.90126 -0.15565,0.12412 -0.25013,0.32238 -0.42231,0.42231 -0.088,0.0511 -0.20542,-0.0194 -0.30532,0 -0.40196,0.0783 -0.57803,0.23761 -0.87806,-0.13879 -0.47613,-0.59733 -0.44496,-0.35397 -0.44496,-0.74911 0,-0.0994 0.0319,-0.20412 0,-0.29831 -0.0777,-0.22936 -0.23819,-0.42406 -0.32159,-0.65139 -0.36694,-1.00023 -0.0652,-1.62578 0.17872,-2.60679 0.0989,-0.39778 0.31229,-0.86364 0.72227,-1.0813 0.01,-0.005 0.57144,0.005 0.59983,0 0.89425,-0.14297 1.60097,-0.32071 2.54412,-0.18224 1.02429,0.15039 2.21182,0.58516 3.20423,0.91596 1.14494,0.38165 2.28988,0.7633 3.43483,1.14495 0.68696,0.22899 1.38036,0.4395 2.0609,0.68696 0.3208,0.11666 0.58479,0.37519 0.91595,0.45798 0.2218,0.0554 0.45725,0 0.68587,0"
       id="path299-7"
       transform="rotate(180,169.58141,135.91801)" />
  </g>
</svg>
