<?xml version="1.0" encoding="UTF-8" standalone="no"?>
<!-- Created with Inkscape (http://www.inkscape.org/) -->

<svg
   width="140mm"
   height="220mm"
   viewBox="0 0 140 220"
   version="1.1"
   id="svg5"
   inkscape:version="1.2 (dc2aeda, 2022-05-15)"
   sodipodi:docname="white_stain.svg"
   xmlns:inkscape="http://www.inkscape.org/namespaces/inkscape"
   xmlns:sodipodi="http://sodipodi.sourceforge.net/DTD/sodipodi-0.dtd"
   xmlns="http://www.w3.org/2000/svg"
   xmlns:svg="http://www.w3.org/2000/svg">
  <sodipodi:namedview
     id="namedview7"
     pagecolor="#505050"
     bordercolor="#ffffff"
     borderopacity="1"
     inkscape:showpageshadow="0"
     inkscape:pageopacity="0"
     inkscape:pagecheckerboard="1"
     inkscape:deskcolor="#505050"
     inkscape:document-units="mm"
     showgrid="false"
     inkscape:zoom="0.52649411"
     inkscape:cx="339.98481"
     inkscape:cy="365.62612"
     inkscape:window-width="1364"
     inkscape:window-height="744"
     inkscape:window-x="0"
     inkscape:window-y="0"
     inkscape:window-maximized="1"
     inkscape:current-layer="layer1" />
  <defs
     id="defs2">
    <filter
       inkscape:collect="always"
       style="color-interpolation-filters:sRGB"
       id="filter856"
       x="-0.36893805"
       y="-0.3627126"
       width="1.7379734"
       height="1.7303375">
      <feGaussianBlur
         inkscape:collect="always"
         stdDeviation="5.5114198"
         id="feGaussianBlur858" />
    </filter>
    <filter
       inkscape:collect="always"
       style="color-interpolation-filters:sRGB"
       id="filter856-3"
       x="-0.53098949"
       y="-0.52414844"
       width="2.0620763"
       height="2.0532093">
      <feGaussianBlur
         inkscape:collect="always"
         stdDeviation="8.0473804"
         id="feGaussianBlur858-6" />
    </filter>
  </defs>
  <g
     inkscape:label="Layer 1"
     inkscape:groupmode="layer"
     id="layer1">
    <rect
       style="display:none;fill:#803500;fill-opacity:1;stroke:#ffffff;stroke-width:0.777963;stroke-linecap:round;stroke-linejoin:bevel;stroke-dasharray:none;paint-order:markers fill stroke"
       id="rect308"
       width="136.92891"
       height="182.41792"
       x="1.485253"
       y="1.1932837"
       ry="25.007198" />
    <rect
       style="display:none;fill:#000000;fill-opacity:1;stroke:#ffffff;stroke-width:0.92553;stroke-linecap:round;stroke-linejoin:bevel;stroke-dasharray:none;paint-order:markers fill stroke"
       id="rect308-3"
       width="136.86914"
       height="201.74754"
       x="1.515138"
       y="16.698175"
       ry="27.657047" />
    <path
       style="display:none;fill:#000000;fill-opacity:1;stroke:#ffffff;stroke-width:0.74648;stroke-linecap:round;stroke-linejoin:bevel;stroke-dasharray:none;paint-order:markers fill stroke"
       id="path2553"
       sodipodi:type="arc"
       sodipodi:cx="69.923653"
       sodipodi:cy="33.0765"
       sodipodi:rx="64.350502"
       sodipodi:ry="24.274588"
       sodipodi:start="3.6832356"
       sodipodi:end="5.7418542"
       sodipodi:open="true"
       sodipodi:arc-type="arc"
       d="M 14.7841,20.561871 A 64.350502,24.274588 0 0 1 69.933686,8.8019126 64.350502,24.274588 0 0 1 125.07355,20.568357" />
    <path
       style="mix-blend-mode:normal;fill:none;stroke:#ffffff;stroke-width:1.265;stroke-linecap:butt;stroke-linejoin:miter;stroke-dasharray:none;stroke-opacity:1;filter:url(#filter856);opacity:0.760622"
       d="m 21.543023,63.826711 c -1.558834,-6.398779 -1.125236,-3.034252 -1.125236,-10.114651 0,-3.973462 -0.12308,-2.282695 0.457986,-6.640687 0.142666,-1.069993 0.324082,-2.134713 0.457971,-3.205842 0.01893,-0.151479 0.101915,-0.344318 0,-0.457978 -0.09138,-0.101915 -0.280797,-0.04329 -0.410658,0 -0.904534,0.301509 -1.501864,0.907344 -1.966291,1.784594 -1.298841,2.45337 -1.144943,5.108813 -1.144943,7.785629 0,0.992285 -0.109578,1.99064 0,2.976858 0.07771,0.699418 0.296791,1.375881 0.457971,2.060898 0.01483,0.06303 0.795296,3.264292 0.915957,3.434845 0.644385,0.910828 1.244608,2.459315 2.357243,2.376334 1.099409,-0.08199 1.364815,-1.740948 1.917076,-2.695115 0.162797,-0.28127 0.158024,-0.632325 0.195645,-0.955124 0.171894,-1.474952 -1.114107,-2.725032 -2.028618,-3.707813 -1.013837,-1.089525 -2.149779,-2.149779 -3.205842,-3.205843 -0.05477,-0.05477 -1.537374,-1.420809 -1.602929,-1.60293 -0.348919,-0.969338 0.103287,-0.116919 0,-0.52769 -0.06192,-0.246256 -0.234046,-0.458237 -0.282279,-0.707536 -0.06024,-0.31138 -0.05265,-0.638709 0,-0.951463 0.178722,-1.061537 1.469198,-2.006589 2.453094,-2.287262 0.209661,-0.05981 0.439986,0.04124 0.654075,0 0.150012,-0.0289 0.273282,-0.136646 0.409923,-0.204967 0.206231,0 0.41447,0.02871 0.618695,0 0.268225,-0.06669 0.536451,-0.133377 0.804677,-0.200062 0.06682,-0.06683 0.108838,-0.177374 0.200475,-0.200475 0.192222,-0.04846 0.400232,0.03842 0.594709,0 1.119419,-0.22117 -0.05572,-0.193191 0.569512,-0.193191 0.05947,0 0.234169,-0.02066 0.178406,0 -0.176631,0.06546 -0.36745,0.08416 -0.54824,0.13706 -0.193547,0.05664 -0.382628,0.127547 -0.573943,0.19132 -1.502819,0.500938 -2.344194,0.686972 -3.8928,0.686972 -0.305318,0 -0.616078,0.05738 -0.915957,0 -0.100355,-0.01921 -0.144498,-0.144499 -0.216747,-0.216749 -0.278314,-0.278313 -0.475035,-0.576784 -0.363162,-1.002697 0.259,-0.986049 0.944241,-1.65907 1.64127,-2.356093 1.243358,-1.243352 2.399286,-2.080758 3.892814,-2.976864 0.381648,-0.228987 0.746857,-0.487921 1.144942,-0.686965 0.215895,-0.107947 0.460963,-0.14424 0.686972,-0.228994 0.384876,-0.144327 0.763295,-0.305318 1.144943,-0.457978 2.430304,-0.972124 -0.130526,-0.112209 2.289885,-0.457978 0.168961,-0.02413 0.305314,-0.152656 0.457971,-0.228986 0.305319,0 0.610638,0 0.915957,0 0.30532,0 0.610639,0 0.915957,0 0.149381,0 0.592208,-0.03948 0.448141,0 -1.382952,0.379021 -2.937117,0.162158 -4.351767,0.162158 -0.846026,0 -1.731601,0.164642 -2.518871,-0.228986 -0.09655,-0.04827 -0.152668,-0.152654 -0.229,-0.228984 -0.691738,-0.691716 -0.267717,-1.332857 0.207024,-2.089028 0.10612,-0.169029 0.173264,-0.377365 0.332121,-0.498182 0.564018,-0.428953 1.226725,-0.713779 1.803221,-1.12581 0.485011,-0.346646 0.872457,-0.822576 1.373928,-1.144952 0.574284,-0.369184 1.230804,-0.592283 1.831914,-0.915956 0.391875,-0.21101 0.741624,-0.49875 1.144943,-0.686964 0.744973,-0.347652 1.546939,-0.564028 2.2899,-0.915958 0.710213,-0.336415 1.368972,-0.772367 2.0609,-1.144942 0.90166,-0.485511 1.831904,-0.915959 2.747857,-1.373937 0.850077,-0.425037 2.088319,-1.077753 2.976856,-1.373936 0.144828,-0.04828 0.309883,0.03703 0.457986,0 0.234172,-0.05854 0.491323,-0.37035 0.686972,-0.228984 0.07628,0.05512 -0.159393,0.67939 -0.180798,0.707851 -0.58393,0.776449 -1.407385,1.342038 -2.0609,2.0609 -0.401019,0.441119 -0.748893,0.928362 -1.144958,1.373936 -0.645441,0.726123 -1.399829,1.348979 -2.060901,2.060901 -0.552114,0.594582 -1.054634,1.233789 -1.602912,1.831914 -0.291769,0.318294 -0.610637,0.61064 -0.915958,0.915956 -0.152662,0.152662 -0.36105,0.26507 -0.457986,0.45798 -0.06787,0.135054 0.02455,0.3043 0,0.453438 -0.269203,1.635008 -0.216948,0.160602 -0.216948,1.508045 0,0.190027 0,0.380056 0,0.570085 0,0.06252 -0.03663,0.136895 0,0.187563 0.02648,0.03663 0.09693,-0.02342 0.135589,0 0.08389,0.05079 0.118864,0.167196 0.208021,0.208037 0.644866,0.295407 1.513501,-1.013635 2.073738,-1.522392 1.825061,-1.657363 0.590658,-0.07489 1.831914,-2.0609 0.690581,-1.104932 1.406752,-2.242405 2.2899,-3.205843 0.510593,-0.557011 1.068607,-1.06862 1.602914,-1.602927 0.948121,-0.948124 1.346711,-1.393516 2.518886,-2.289887 0.740119,-0.565976 1.46644,-1.166987 2.289885,-1.602928 1.330332,-0.704293 2.9119,-0.45797 4.350784,-0.45797 0.822859,0 2.007238,-0.193868 2.747872,0.228984 0.172572,0.09853 1.537375,1.679014 1.568546,1.789641 0.04901,0.173932 -0.0338,0.364596 0,0.542113 0.02323,0.122058 0.136633,0.212842 0.16669,0.333402 0.09695,0.388887 -0.05164,0.386873 -0.319471,0.654703 -0.79052,0.79053 -0.656294,0.06407 -2.29539,0.342236 -0.336545,0.05712 -0.583343,0.381222 -0.915959,0.457981 -0.883436,0.203869 -3.218555,0.329345 -4.121798,0.228983 -0.699421,-0.07771 -1.372796,-0.310528 -2.0609,-0.457978 -0.380566,-0.08155 -0.775711,-0.105907 -1.144942,-0.228986 -1.418529,-0.472837 -2.639079,-1.27731 -3.892815,-2.060898 -1.055433,-0.659648 -1.14626,-0.611732 -2.0609,-1.373936 -0.320884,-0.267406 -0.617657,-0.617646 -0.915956,-0.915958"
       id="path299" />
    <path
       style="mix-blend-mode:normal;fill:none;stroke:#ffffff;stroke-width:1.265;stroke-linecap:butt;stroke-linejoin:miter;stroke-dasharray:none;stroke-opacity:1;filter:url(#filter856-3);opacity:0.59812474"
       d="m 85.635364,172.35808 c -1.558834,-6.39878 -1.125236,-3.03425 -1.125236,-10.11465 0,-3.97346 -0.12308,-2.28269 0.457986,-6.64069 0.142666,-1.06999 0.324082,-2.13471 0.457971,-3.20584 0.01893,-0.15148 0.101915,-0.34432 0,-0.45798 -0.09138,-0.10191 -0.280797,-0.0433 -0.410658,0 -0.904534,0.30151 -1.501864,0.90735 -1.966291,1.7846 -1.298841,2.45337 -1.144943,5.10881 -1.144943,7.78563 0,0.99228 -0.109578,1.99064 0,2.97686 0.07771,0.69941 0.296791,1.37588 0.457971,2.06089 0.01483,0.063 0.795296,3.2643 0.915957,3.43485 0.644385,0.91083 1.244608,2.45931 2.357243,2.37633 1.099409,-0.082 1.364815,-1.74095 1.917076,-2.69511 0.162797,-0.28127 0.158024,-0.63233 0.195645,-0.95513 0.171894,-1.47495 -1.114107,-2.72503 -2.028618,-3.70781 -1.013837,-1.08952 -2.149779,-2.14978 -3.205842,-3.20584 -0.05477,-0.0548 -1.537374,-1.42081 -1.602929,-1.60293 -0.348919,-0.96934 0.103287,-0.11692 0,-0.52769 -0.06192,-0.24626 -0.234046,-0.45824 -0.282279,-0.70754 -0.06024,-0.31138 -0.05265,-0.63871 0,-0.95146 0.178722,-1.06154 1.469198,-2.00659 2.453094,-2.28726 0.209661,-0.0598 0.439986,0.0412 0.654075,0 0.150012,-0.0289 0.273282,-0.13665 0.409923,-0.20497 0.206231,0 0.41447,0.0287 0.618695,0 0.268225,-0.0667 0.536451,-0.13338 0.804677,-0.20006 0.06682,-0.0668 0.108838,-0.17738 0.200475,-0.20048 0.192222,-0.0485 0.400232,0.0384 0.594709,0 1.119419,-0.22117 -0.05572,-0.19319 0.569512,-0.19319 0.05947,0 0.234169,-0.0207 0.178406,0 -0.176631,0.0655 -0.36745,0.0842 -0.54824,0.13706 -0.193547,0.0566 -0.382628,0.12755 -0.573943,0.19132 -1.502819,0.50094 -2.344194,0.68697 -3.8928,0.68697 -0.305318,0 -0.616078,0.0574 -0.915957,0 -0.100355,-0.0192 -0.144498,-0.1445 -0.216747,-0.21675 -0.278314,-0.27831 -0.475035,-0.57678 -0.363162,-1.00269 0.259,-0.98605 0.944241,-1.65907 1.64127,-2.3561 1.243358,-1.24335 2.399286,-2.08075 3.892814,-2.97686 0.381648,-0.22899 0.746857,-0.48792 1.144942,-0.68696 0.215895,-0.10795 0.460963,-0.14424 0.686972,-0.229 0.384876,-0.14433 0.763295,-0.30532 1.144943,-0.45798 2.430304,-0.97212 -0.130526,-0.11221 2.289885,-0.45797 0.168961,-0.0241 0.305314,-0.15266 0.457971,-0.22899 0.305319,0 0.610638,0 0.915957,0 0.30532,0 0.610639,0 0.915957,0 0.149381,0 0.592208,-0.0395 0.448141,0 -1.382952,0.37902 -2.937117,0.16216 -4.351767,0.16216 -0.846026,0 -1.731601,0.16464 -2.518871,-0.22899 -0.09655,-0.0483 -0.152668,-0.15265 -0.229,-0.22898 -0.691738,-0.69172 -0.267717,-1.33286 0.207024,-2.08903 0.10612,-0.16903 0.173264,-0.37737 0.332121,-0.49818 0.564018,-0.42896 1.226725,-0.71378 1.803221,-1.12581 0.485011,-0.34665 0.872457,-0.82258 1.373928,-1.14495 0.574284,-0.36919 1.230804,-0.59229 1.831914,-0.91596 0.391875,-0.21101 0.741624,-0.49875 1.144943,-0.68696 0.744973,-0.34766 1.546939,-0.56403 2.2899,-0.91596 0.710213,-0.33642 1.368972,-0.77237 2.0609,-1.14494 0.90166,-0.48552 1.831904,-0.91596 2.747861,-1.37394 0.85007,-0.42504 2.08831,-1.07775 2.97685,-1.37394 0.14483,-0.0483 0.30988,0.037 0.45799,0 0.23417,-0.0585 0.49132,-0.37035 0.68697,-0.22898 0.0763,0.0551 -0.15939,0.67939 -0.1808,0.70785 -0.58393,0.77645 -1.40738,1.34204 -2.0609,2.0609 -0.40102,0.44112 -0.74889,0.92836 -1.14496,1.37394 -0.64544,0.72612 -1.39983,1.34897 -2.060897,2.0609 -0.552114,0.59458 -1.054634,1.23379 -1.602912,1.83191 -0.291769,0.31829 -0.610637,0.61064 -0.915958,0.91596 -0.152662,0.15266 -0.36105,0.26507 -0.457986,0.45798 -0.06787,0.13505 0.02455,0.3043 0,0.45343 -0.269203,1.63501 -0.216948,0.16061 -0.216948,1.50805 0,0.19003 0,0.38006 0,0.57008 0,0.0625 -0.03663,0.1369 0,0.18757 0.02648,0.0366 0.09693,-0.0234 0.135589,0 0.08389,0.0508 0.118864,0.16719 0.208021,0.20803 0.644866,0.29541 1.513501,-1.01363 2.073738,-1.52239 1.825063,-1.65736 0.590658,-0.0749 1.831913,-2.0609 0.69058,-1.10493 1.40675,-2.2424 2.2899,-3.20584 0.51059,-0.55701 1.06861,-1.06862 1.60291,-1.60293 0.94813,-0.94812 1.34672,-1.39351 2.51889,-2.28988 0.74012,-0.56598 1.46644,-1.16699 2.28989,-1.60293 1.33033,-0.7043 2.9119,-0.45797 4.35078,-0.45797 0.82286,0 2.00724,-0.19387 2.74787,0.22898 0.17257,0.0985 1.53738,1.67902 1.56855,1.78964 0.049,0.17393 -0.0338,0.3646 0,0.54212 0.0232,0.12205 0.13663,0.21284 0.16669,0.3334 0.0969,0.38888 -0.0516,0.38687 -0.31947,0.6547 -0.79052,0.79053 -0.6563,0.0641 -2.29539,0.34224 -0.33655,0.0571 -0.58335,0.38122 -0.91596,0.45798 -0.88344,0.20387 -3.21856,0.32934 -4.1218,0.22898 -0.69942,-0.0777 -1.3728,-0.31053 -2.0609,-0.45798 -0.38057,-0.0815 -0.77571,-0.1059 -1.14494,-0.22898 -1.41853,-0.47284 -2.63908,-1.27731 -3.89282,-2.0609 -1.05543,-0.65965 -1.14626,-0.61173 -2.0609,-1.37394 -0.32088,-0.2674 -0.61765,-0.61764 -0.91595,-0.91596"
       id="path299-7"
       transform="rotate(-165,102.62973,169.55256)" />
  </g>
</svg>
