<?xml version="1.0" encoding="UTF-8" standalone="no"?>
<!-- Created with Inkscape (http://www.inkscape.org/) -->

<svg
   width="164mm"
   height="297mm"
   viewBox="0 0 164 297"
   version="1.1"
   id="svg2300"
   inkscape:version="1.2 (dc2aeda, 2022-05-15)"
   sodipodi:docname="6_6.svg"
   xmlns:inkscape="http://www.inkscape.org/namespaces/inkscape"
   xmlns:sodipodi="http://sodipodi.sourceforge.net/DTD/sodipodi-0.dtd"
   xmlns="http://www.w3.org/2000/svg"
   xmlns:svg="http://www.w3.org/2000/svg">
  <sodipodi:namedview
     id="namedview2302"
     pagecolor="#505050"
     bordercolor="#ffffff"
     borderopacity="1"
     inkscape:showpageshadow="0"
     inkscape:pageopacity="0"
     inkscape:pagecheckerboard="1"
     inkscape:deskcolor="#505050"
     inkscape:document-units="mm"
     showgrid="false"
     inkscape:zoom="0.54965629"
     inkscape:cx="35.476716"
     inkscape:cy="561.25984"
     inkscape:window-width="1918"
     inkscape:window-height="1056"
     inkscape:window-x="1366"
     inkscape:window-y="0"
     inkscape:window-maximized="1"
     inkscape:current-layer="layer1" />
  <defs
     id="defs2297">
    <filter
       inkscape:collect="always"
       style="color-interpolation-filters:sRGB"
       id="filter3070"
       x="-0.28038006"
       y="-0.32375501"
       width="1.5607601"
       height="1.64751">
      <feGaussianBlur
         inkscape:collect="always"
         stdDeviation="11.725735"
         id="feGaussianBlur3072" />
    </filter>
    <filter
       inkscape:collect="always"
       style="color-interpolation-filters:sRGB"
       id="filter3074"
       x="-0.27993604"
       y="-0.32323514"
       width="1.5598721"
       height="1.6464703">
      <feGaussianBlur
         inkscape:collect="always"
         stdDeviation="11.707152"
         id="feGaussianBlur3076" />
    </filter>
    <filter
       inkscape:collect="always"
       style="color-interpolation-filters:sRGB"
       id="filter3078"
       x="-0.27990668"
       y="-0.32320125"
       width="1.5598134"
       height="1.6464025">
      <feGaussianBlur
         inkscape:collect="always"
         stdDeviation="11.705925"
         id="feGaussianBlur3080" />
    </filter>
    <filter
       inkscape:collect="always"
       style="color-interpolation-filters:sRGB"
       id="filter3082"
       x="-0.28033246"
       y="-0.32369291"
       width="1.5606649"
       height="1.6473858">
      <feGaussianBlur
         inkscape:collect="always"
         stdDeviation="11.723731"
         id="feGaussianBlur3084" />
    </filter>
    <filter
       inkscape:collect="always"
       style="color-interpolation-filters:sRGB"
       id="filter3123"
       x="-0.27961507"
       y="-0.32286457"
       width="1.5592301"
       height="1.6457291">
      <feGaussianBlur
         inkscape:collect="always"
         stdDeviation="11.693729"
         id="feGaussianBlur3125" />
    </filter>
    <filter
       inkscape:collect="always"
       style="color-interpolation-filters:sRGB"
       id="filter3127"
       x="-0.28035081"
       y="-0.32371406"
       width="1.5607016"
       height="1.6474281">
      <feGaussianBlur
         inkscape:collect="always"
         stdDeviation="11.724499"
         id="feGaussianBlur3129" />
    </filter>
  </defs>
  <g
     inkscape:label="Layer 1"
     inkscape:groupmode="layer"
     id="layer1">
    <g
       id="g2825"
       inkscape:label="back">
      <path
         id="path14206-9"
         style="fill:#4c0000;stroke-width:2.165;stroke-linejoin:bevel;paint-order:markers fill stroke;fill-opacity:1"
         inkscape:transform-center-x="9.1621186e-06"
         inkscape:transform-center-y="6.126079"
         transform="matrix(-9.1354976,0,0,-9.1354976,249.23055,899.42404)"
         d="m 23.90101,69.433466 -2.746705,4.757432 -2.746705,4.757432 -2.746704,-4.757432 -2.746705,-4.757432 5.493409,0 z" />
      <path
         id="path14206-0-1"
         style="fill:#4c0000;fill-opacity:1;stroke:none;stroke-width:19.7783;stroke-linejoin:bevel;stroke-dasharray:none;stroke-opacity:1;paint-order:markers fill stroke"
         inkscape:transform-center-y="6.1261366"
         d="M 131.44632,235.14784 106.3566,191.68267 81.261342,148.22299 56.171633,191.68267 31.076374,235.14784 H 44.17797 l 11.993663,-20.77421 25.089709,-43.45964 25.095258,43.45964 11.99365,20.77421 z" />
      <path
         id="path14206-0-4-7"
         style="fill:#4c0000;fill-opacity:1;stroke:none;stroke-width:19.7783;stroke-linejoin:bevel;stroke-dasharray:none;stroke-opacity:1;paint-order:markers fill stroke"
         inkscape:transform-center-y="6.126131"
         d="M 131.45864,206.17228 106.36892,162.70706 81.273658,119.24743 56.183949,162.70706 31.088691,206.17228 h 13.101601 l 11.993657,-20.7742 25.089709,-43.45968 25.095262,43.45968 11.99365,20.7742 z"
         inkscape:transform-center-x="-1.1242121e-06" />
      <path
         id="path14206-0-4-5-7"
         style="fill:#4c0000;fill-opacity:1;stroke:none;stroke-width:19.7783;stroke-linejoin:bevel;stroke-dasharray:none;stroke-opacity:1;paint-order:markers fill stroke"
         inkscape:transform-center-y="6.1261282"
         d="M 131.76786,176.93937 106.67815,133.47421 81.582881,90.014523 56.493172,133.47421 31.397913,176.93937 h 13.101602 l 11.993657,-20.77419 25.089709,-43.45964 25.095269,43.45964 11.99364,20.77419 z"
         inkscape:transform-center-x="1.1155939e-06" />
      <path
         id="path14206-0-4-5-6-4"
         style="fill:#4c0000;fill-opacity:1;stroke:none;stroke-width:19.7783;stroke-linejoin:bevel;stroke-dasharray:none;stroke-opacity:1;paint-order:markers fill stroke"
         inkscape:transform-center-y="6.1261322"
         d="M 131.65708,148.06156 106.56736,104.59639 81.472099,61.136717 56.38239,104.59639 31.287132,148.06156 h 13.1016 l 11.993658,-20.7742 25.089709,-43.459652 25.095261,43.459652 11.99365,20.7742 z" />
      <path
         id="path14206-0-4-5-6-2-1"
         style="fill:#4c0000;fill-opacity:1;stroke:none;stroke-width:19.7783;stroke-linejoin:bevel;stroke-dasharray:none;stroke-opacity:1;paint-order:markers fill stroke"
         inkscape:transform-center-y="6.1261303"
         d="M 131.66099,119.68615 106.57128,76.220958 81.476011,32.761294 56.386306,76.220958 31.291044,119.68615 H 44.392645 L 56.386306,98.911949 81.476011,55.452285 106.57128,98.911949 118.56492,119.68615 Z" />
    </g>
    <g
       id="g2936"
       inkscape:label="1"
       style="display:inline;fill:#ff0000;fill-opacity:1">
      <path
         id="path14206-9-6"
         style="fill:#ff0000;fill-opacity:1;stroke-width:2.165;stroke-linejoin:bevel;paint-order:markers fill stroke"
         inkscape:transform-center-x="9.1621186e-06"
         inkscape:transform-center-y="6.126079"
         transform="matrix(-9.1354976,0,0,-9.1354976,249.23055,899.42403)"
         d="M 23.90101,69.433466 21.154305,74.190898 18.4076,78.94833 15.660896,74.190898 12.914191,69.433466 H 18.4076 Z" />
      <path
         id="path14206-9-6-2"
         style="mix-blend-mode:normal;fill:#ff0000;fill-opacity:1;stroke-width:19.7784;stroke-linejoin:bevel;paint-order:markers fill stroke;filter:url(#filter3070)"
         inkscape:transform-center-x="9.1621186e-06"
         inkscape:transform-center-y="6.126079"
         d="m 30.882931,265.11478 25.092516,-43.46151 25.092517,-43.46151 25.092506,43.46151 25.09252,43.46151 H 81.067964 Z" />
    </g>
    <g
       id="g2962"
       inkscape:label="2"
       style="display:inline;fill:#ff0000;fill-opacity:1">
      <path
         id="path14206-0-1-7"
         style="fill:#ff0000;fill-opacity:1;stroke:none;stroke-width:19.7783;stroke-linejoin:bevel;stroke-dasharray:none;stroke-opacity:1;paint-order:markers fill stroke"
         inkscape:transform-center-y="6.1261366"
         d="M 131.44632,235.14784 106.3566,191.68267 81.261342,148.22299 56.171633,191.68267 31.076374,235.14784 H 44.17797 l 11.993663,-20.77421 25.089709,-43.45964 25.095258,43.45964 11.99365,20.77421 z" />
      <path
         id="path14206-0-1-7-9"
         style="mix-blend-mode:normal;fill:#ff0000;fill-opacity:1;stroke:none;stroke-width:19.7783;stroke-linejoin:bevel;stroke-dasharray:none;stroke-opacity:1;paint-order:markers fill stroke;filter:url(#filter3074)"
         inkscape:transform-center-y="6.1261366"
         d="m 131.44632,235.14784 -25.08972,-43.46517 -25.095257,-43.45968 -25.08971,43.45968 -25.09526,43.46517 h 13.1016 l 11.99366,-20.77421 25.08971,-43.45964 25.095257,43.45964 11.99365,20.77421 z" />
    </g>
    <g
       id="g2990"
       inkscape:label="3"
       style="display:inline;fill:#ff0000;fill-opacity:1">
      <path
         id="path14206-0-4-7-5"
         style="fill:#ff0000;fill-opacity:1;stroke:none;stroke-width:19.7783;stroke-linejoin:bevel;stroke-dasharray:none;stroke-opacity:1;paint-order:markers fill stroke"
         inkscape:transform-center-y="6.126131"
         d="M 131.45864,206.17228 106.36892,162.70706 81.273658,119.24743 56.183949,162.70706 31.088691,206.17228 h 13.101601 l 11.993657,-20.7742 25.089709,-43.45968 25.095262,43.45968 11.99365,20.7742 z"
         inkscape:transform-center-x="-1.1242121e-06" />
      <path
         id="path14206-0-4-7-5-1"
         style="mix-blend-mode:normal;fill:#ff0000;fill-opacity:1;stroke:none;stroke-width:19.7783;stroke-linejoin:bevel;stroke-dasharray:none;stroke-opacity:1;paint-order:markers fill stroke;filter:url(#filter3078)"
         inkscape:transform-center-y="6.126131"
         d="M 131.45864,206.17228 106.36892,162.70706 81.27366,119.24743 56.18395,162.70706 31.08869,206.17228 h 13.1016 l 11.99366,-20.7742 25.08971,-43.45968 25.09526,43.45968 11.99365,20.7742 z"
         inkscape:transform-center-x="-1.1242121e-06" />
    </g>
    <g
       id="g3016"
       inkscape:label="4"
       style="display:inline;fill:#ff0000;fill-opacity:1">
      <path
         id="path14206-0-4-5-7-3"
         style="fill:#ff0000;fill-opacity:1;stroke:none;stroke-width:19.7783;stroke-linejoin:bevel;stroke-dasharray:none;stroke-opacity:1;paint-order:markers fill stroke"
         inkscape:transform-center-y="6.1261282"
         d="M 131.76786,176.93937 106.67815,133.47421 81.582881,90.014523 56.493172,133.47421 31.397913,176.93937 h 13.101602 l 11.993657,-20.77419 25.089709,-43.45964 25.095269,43.45964 11.99364,20.77419 z"
         inkscape:transform-center-x="1.1155939e-06" />
      <path
         id="path14206-0-4-5-7-3-2"
         style="mix-blend-mode:normal;fill:#ff0000;fill-opacity:1;stroke:none;stroke-width:19.7783;stroke-linejoin:bevel;stroke-dasharray:none;stroke-opacity:1;paint-order:markers fill stroke;filter:url(#filter3082)"
         inkscape:transform-center-y="6.1261282"
         d="M 131.76786,176.93937 106.67815,133.47421 81.58288,90.01453 56.49317,133.47421 31.39791,176.93937 h 13.1016 l 11.99366,-20.77419 25.08971,-43.45964 25.09527,43.45964 11.99364,20.77419 z"
         inkscape:transform-center-x="1.1155939e-06" />
    </g>
    <g
       id="g3042"
       inkscape:label="5"
       style="display:inline;fill:#ff0000;fill-opacity:1">
      <path
         id="path14206-0-4-5-6-4-5"
         style="fill:#ff0000;fill-opacity:1;stroke:none;stroke-width:19.7783;stroke-linejoin:bevel;stroke-dasharray:none;stroke-opacity:1;paint-order:markers fill stroke"
         inkscape:transform-center-y="6.1261322"
         d="M 131.65708,148.06156 106.56736,104.59639 81.472099,61.136717 56.38239,104.59639 31.287132,148.06156 h 13.1016 l 11.993658,-20.7742 25.089709,-43.459652 25.095261,43.459652 11.99365,20.7742 z" />
      <path
         id="path14206-0-4-5-6-4-5-7"
         style="mix-blend-mode:normal;fill:#ff0000;fill-opacity:1;stroke:none;stroke-width:19.7783;stroke-linejoin:bevel;stroke-dasharray:none;stroke-opacity:1;paint-order:markers fill stroke;filter:url(#filter3123)"
         inkscape:transform-center-y="6.1261322"
         d="M 131.65708,148.06156 106.56736,104.59639 81.4721,61.136721 56.38239,104.59639 31.28713,148.06156 h 13.1016 l 11.99366,-20.7742 25.08971,-43.45965 25.09526,43.45965 11.99365,20.7742 z" />
    </g>
    <g
       id="g3068"
       inkscape:label="6"
       style="display:inline;fill:#ff0000;fill-opacity:1">
      <path
         id="path14206-0-4-5-6-2-1-6"
         style="fill:#ff0000;fill-opacity:1;stroke:none;stroke-width:19.7783;stroke-linejoin:bevel;stroke-dasharray:none;stroke-opacity:1;paint-order:markers fill stroke"
         inkscape:transform-center-y="6.1261303"
         d="M 131.66099,119.68615 106.57128,76.220958 81.476011,32.761294 56.386306,76.220958 31.291044,119.68615 H 44.392645 L 56.386306,98.911949 81.476011,55.452285 106.57128,98.911949 118.56492,119.68615 Z" />
      <path
         id="path14206-0-4-5-6-2-1-6-0"
         style="mix-blend-mode:normal;fill:#ff0000;fill-opacity:1;stroke:none;stroke-width:19.7783;stroke-linejoin:bevel;stroke-dasharray:none;stroke-opacity:1;paint-order:markers fill stroke;filter:url(#filter3127)"
         inkscape:transform-center-y="6.1261303"
         d="M 131.66099,119.68615 106.57128,76.22096 81.47601,32.761296 56.38631,76.22096 31.29104,119.68615 h 13.1016 l 11.99367,-20.774201 25.0897,-43.459662 25.09527,43.459662 11.99364,20.774201 z" />
    </g>
  </g>
</svg>
