<?xml version="1.0" encoding="UTF-8" standalone="no"?>
<!-- Created with Inkscape (http://www.inkscape.org/) -->

<svg
   width="213mm"
   height="220mm"
   viewBox="0 0 213 220"
   version="1.1"
   id="svg5"
   inkscape:version="1.2 (dc2aeda, 2022-05-15)"
   sodipodi:docname="white_stain.svg"
   xmlns:inkscape="http://www.inkscape.org/namespaces/inkscape"
   xmlns:sodipodi="http://sodipodi.sourceforge.net/DTD/sodipodi-0.dtd"
   xmlns="http://www.w3.org/2000/svg"
   xmlns:svg="http://www.w3.org/2000/svg">
  <sodipodi:namedview
     id="namedview7"
     pagecolor="#505050"
     bordercolor="#ffffff"
     borderopacity="1"
     inkscape:showpageshadow="0"
     inkscape:pageopacity="0"
     inkscape:pagecheckerboard="1"
     inkscape:deskcolor="#505050"
     inkscape:document-units="mm"
     showgrid="false"
     inkscape:zoom="0.52649411"
     inkscape:cx="311.49446"
     inkscape:cy="418.8081"
     inkscape:window-width="1364"
     inkscape:window-height="744"
     inkscape:window-x="0"
     inkscape:window-y="0"
     inkscape:window-maximized="1"
     inkscape:current-layer="layer1" />
  <defs
     id="defs2">
    <filter
       inkscape:collect="always"
       style="color-interpolation-filters:sRGB"
       id="filter910"
       x="-0.68169848"
       y="-0.57153513"
       width="2.3632162"
       height="2.1430968">
      <feGaussianBlur
         inkscape:collect="always"
         stdDeviation="12.175947"
         id="feGaussianBlur912" />
    </filter>
    <filter
       inkscape:collect="always"
       style="color-interpolation-filters:sRGB"
       id="filter910-3"
       x="-0.68169826"
       y="-0.57153518"
       width="2.3632157"
       height="2.1430967">
      <feGaussianBlur
         inkscape:collect="always"
         stdDeviation="12.175947"
         id="feGaussianBlur912-6" />
    </filter>
  </defs>
  <g
     inkscape:label="Layer 1"
     inkscape:groupmode="layer"
     id="layer1">
    <rect
       style="display:none;fill:#803500;fill-opacity:1;stroke:#ffffff;stroke-width:0.962987;stroke-linecap:round;stroke-linejoin:bevel;stroke-dasharray:none;paint-order:markers fill stroke"
       id="rect308"
       width="210.00201"
       height="182.24786"
       x="1.5864936"
       y="1.2945967"
       ry="24.983885" />
    <rect
       style="display:none;fill:#000000;fill-opacity:1;stroke:#ffffff;stroke-width:1.14565;stroke-linecap:round;stroke-linejoin:bevel;stroke-dasharray:none;paint-order:markers fill stroke"
       id="rect308-3"
       width="209.91035"
       height="201.55946"
       x="1.632327"
       y="16.785034"
       ry="27.631264" />
    <path
       style="display:none;fill:#000000;fill-opacity:1;stroke:#ffffff;stroke-width:0.961038;stroke-linecap:round;stroke-linejoin:bevel;stroke-dasharray:none;paint-order:markers fill stroke"
       id="path2553"
       sodipodi:type="arc"
       sodipodi:cx="106.58713"
       sodipodi:cy="33.101383"
       sodipodi:rx="107.03014"
       sodipodi:ry="24.190313"
       sodipodi:start="3.6832356"
       sodipodi:end="5.7418542"
       sodipodi:open="true"
       sodipodi:arc-type="arc"
       d="M 14.876976,20.630201 A 107.03014,24.190313 0 0 1 106.60382,8.9110702 107.03014,24.190313 0 0 1 198.31448,20.636665" />
    <path
       style="mix-blend-mode:normal;fill:none;fill-opacity:1;stroke:#ffffff;stroke-width:1.065;stroke-linecap:butt;stroke-linejoin:miter;stroke-dasharray:none;stroke-opacity:1;filter:url(#filter910)"
       d="m 35.669774,80.855288 c -0.220013,-0.789627 -0.477279,-1.56981 -0.660041,-2.368883 -0.419021,-1.832041 -0.457955,-2.599322 -0.685806,-4.346167 -0.558868,-4.284623 -0.457987,-2.218169 -0.457987,-5.724713 0,-1.679255 0,-3.358507 0,-5.037759 0,-0.381651 0,-0.763305 0,-1.144958 0,-0.217641 0,-0.435282 0,-0.652926 0,-0.05389 -0.05129,-0.178186 0,-0.161658 0.792396,0.255334 1.787037,2.293665 1.78994,2.300036 0.889885,1.953369 1.161615,3.509812 1.602929,5.49573 0.457978,2.060905 0.959893,4.112535 1.373929,6.182714 0.57841,2.892052 1.063471,5.802 1.602927,8.701572 0.576131,3.096688 -0.20724,-1.057929 0.686957,2.518886 0.03702,0.148098 0,0.305313 0,0.45797 0,0.07634 0.06982,0.259855 0,0.229002 -0.892832,-0.394557 -2.215171,-3.746452 -2.399708,-4.20779 -0.968824,-2.422062 -1.948667,-4.844439 -2.747856,-7.327644 -1.339471,-4.16193 -2.433181,-8.399004 -3.663829,-12.594399 -1.252283,-4.26915 -1.280239,-3.848515 -2.0609,-7.556643 -0.09565,-0.454334 -0.139862,-0.918271 -0.228985,-1.373928 -0.013,-0.06648 0,0.135469 0,0.203205 0,0.338691 -0.06827,0.684332 0,1.016072 0.238848,1.160637 0.608512,2.290463 0.915957,3.434844 1.066489,3.969713 2.083056,7.953267 3.205842,11.907427 0.633086,2.229565 1.668459,4.356431 2.0609,6.640672 0.193349,1.125407 -0.66239,2.315601 -0.334269,3.409338 0.403093,1.343642 1.6451,2.274898 2.395168,3.460332 0.129063,0.203976 0.21672,0.445908 0.228986,0.686972 0.0049,0.09624 -0.14423,-0.12918 -0.204433,-0.204433 -0.212849,-0.266067 -0.435089,-0.527354 -0.613309,-0.817758 -0.629344,-1.025498 -1.268319,-2.048928 -1.806412,-3.125113 -1.978927,-3.957849 -3.02451,-6.294008 -4.376289,-10.156245 -0.799479,-2.28423 -2.197855,-6.29049 -2.747872,-8.930571 -0.27637,-1.326579 -0.228985,-2.562839 -0.228985,-3.892812 0,-0.381648 -0.03797,-0.765191 0,-1.144945 0.110971,-1.109728 0.217149,-1.121285 0.686956,-2.0609 0.228991,-0.457981 0.389366,-0.957273 0.686972,-1.373942 0.20559,-0.287843 1.501146,-1.59504 1.829507,-1.829506 0.362212,-0.258638 0.76945,-0.448022 1.144942,-0.686972 1.160086,-0.738238 2.268803,-1.561113 3.434844,-2.289887 5.73789,-3.586168 0.83451,-1.010354 2.744804,-1.373928 0.296159,-0.05636 0.822044,-0.325671 0.842465,-0.209653 0.06428,0.365209 -0.05699,0.746051 0,1.112467 0.09674,0.621953 0.354507,1.211048 0.457988,1.831916 0.282853,1.697107 0.228984,3.331509 0.228984,5.037757 0,0.356777 0.23313,2.0158 -0.228984,2.518886 -0.170555,0.185674 -0.613873,-0.229425 -0.754208,-0.344929 -0.738994,-0.608232 -0.982577,-0.648904 -1.555445,-1.648629 -0.07508,-0.131025 0.01881,-0.3032 0,-0.453033 -0.505127,-4.021976 -0.729221,-2.942109 -0.228987,-7.544268 1.179161,-10.848295 0.359016,-2.940066 1.373929,-8.014621 0.115414,-0.577072 0.383696,-3.243022 0.915955,-4.121801 0.106688,-0.176144 -0.04039,0.415869 0,0.617807 0.09801,0.490043 0.367755,0.943764 0.411872,1.441562 0.09434,1.064439 0,2.137227 0,3.205842 0,2.976859 0,5.953718 0,8.930579 0,1.221269 0,2.442541 0,3.663812 0,0.305319 0,0.610638 0,0.915959 0,0.07633 0.06176,0.273859 0,0.228999 -0.319143,-0.231804 -0.600067,-0.521189 -0.836731,-0.836745 -0.187095,-0.249465 -0.32062,-0.540615 -0.418357,-0.836731 -0.348342,-1.055373 -0.706078,-2.114463 -0.915958,-3.205842 -0.267018,-1.388494 -0.228984,-2.733485 -0.228984,-4.121799 0,-0.839626 0,-1.679252 0,-2.518878 0,-0.61064 -0.100388,-1.229585 0,-1.831917 0.129633,-0.777819 1.117383,-1.656291 1.602912,-2.060897 0.504425,-0.420355 1.007917,-0.867273 1.60293,-1.144945 1.604071,-0.748562 4.057817,-0.532069 5.724729,-0.228992 0.309634,0.0563 0.606306,0.172696 0.915943,0.228992 0.531026,0.09655 1.075174,0.115898 1.602927,0.228986 1.394304,0.298778 2.729802,0.83561 4.121801,1.144942 1.579377,0.350975 3.198381,0.457981 4.80877,0.457981 0.457981,0 0.915964,0 1.373945,0 0.152447,0 0.304895,0 0.457343,0 0.07191,0 0.249306,-0.0636 0.215733,0 -0.051,0.0966 -0.195403,0.09771 -0.293106,0.14656 -2.512171,1.256102 1.640975,-0.757462 -2.424123,0.868574 -0.633886,0.253556 -1.2422,0.571958 -1.831914,0.915959 -0.32966,0.192302 -0.6033,0.468103 -0.915958,0.686964 -1.061072,0.742752 -2.21978,1.574887 -3.434829,2.060908 -0.329943,0.131977 -0.789424,-0.0711 -1.144942,0 -0.308605,0.06172 -0.603218,0.193779 -0.915958,0.228984 -1.296993,0.146005 -2.228041,-0.31763 -3.131799,-1.221393 -1.377058,-1.377069 -2.139296,-2.296057 -2.74787,-4.121806 -0.01069,-0.0321 -0.323884,-0.772547 -0.228986,-0.915959 0.254254,-0.384241 0.450972,-0.875903 0.864949,-1.078161 1.974429,-0.964652 4.088646,-0.686964 6.182699,-0.686964 3.692871,0 7.333332,-0.571236 10.991471,0.228986 10.040869,2.196449 0.217805,0.397936 5.037773,1.602928 0.148098,0.03703 0.313147,-0.04827 0.45797,0 1.476335,0.492106 0.464566,0.457972 1.144944,0.457972 0.834147,0 1.668296,0 2.502445,0 0.411774,0 0.831726,-0.08167 1.235319,0 0.04367,0.0088 -0.01609,0.09211 0,0.133655 0.187296,0.483846 0.317352,0.396584 0.246636,0.859097 -0.255362,1.670248 -0.634166,1.912162 -2.060101,2.743954 -0.464825,0.271147 -1.547707,1.021249 -2.289884,1.144942 -0.225877,0.03764 -0.457983,0 -0.686972,0 -0.992286,0 -1.984574,0 -2.976859,0 -0.381646,0 -0.764863,-0.03455 -1.144942,0 -1.868681,0.169883 -1.724652,0.525142 -3.663828,-0.228984 -0.793033,-0.308404 -4.009708,-1.833295 -4.808757,-2.289895 -0.331364,-0.189349 -0.593974,-0.482065 -0.915956,-0.686964 -0.519184,-0.330388 -1.078828,-0.593431 -1.60293,-0.915956 -0.703154,-0.432712 -1.344049,-0.964308 -2.060901,-1.373936 -0.296381,-0.16936 -0.623244,-0.282353 -0.915956,-0.457978 -0.09256,-0.05554 -0.124264,-0.202805 -0.228986,-0.228986 -0.222152,-0.05554 -0.462428,0.04491 -0.686972,0 -0.167362,-0.03347 -0.290608,-0.195519 -0.45797,-0.228994 -0.43652,-0.0873 -1.123701,0 -1.586275,0 -0.04796,0 0.104595,-0.02752 0.14387,0 0.354904,0.248682 0.604885,0.672671 1.015182,0.812146 0.433607,0.1474 0.91997,-0.06053 1.373929,0 0.697558,0.09301 1.36426,0.358458 2.060916,0.457981 0.377812,0.05397 0.76414,-0.0254 1.144942,0 4.68802,0.312539 -0.187635,0.228991 4.808773,0.228991"
       id="path353" />
    <path
       style="mix-blend-mode:normal;fill:none;fill-opacity:1;stroke:#ffffff;stroke-width:1.065;stroke-linecap:butt;stroke-linejoin:miter;stroke-dasharray:none;stroke-opacity:1;filter:url(#filter910-3);opacity:0.67144705"
       d="m 142.68138,180.66904 c -0.22002,-0.78963 -0.47728,-1.56981 -0.66004,-2.36888 -0.41902,-1.83205 -0.45796,-2.59933 -0.68581,-4.34617 -0.55887,-4.28462 -0.45799,-2.21817 -0.45799,-5.72471 0,-1.67926 0,-3.35851 0,-5.03776 0,-0.38165 0,-0.76331 0,-1.14496 0,-0.21764 0,-0.43528 0,-0.65293 0,-0.0539 -0.0513,-0.17818 0,-0.16166 0.7924,0.25534 1.78704,2.29367 1.78994,2.30004 0.88989,1.95337 1.16162,3.50981 1.60293,5.49573 0.45798,2.06091 0.9599,4.11254 1.37393,6.18271 0.57841,2.89206 1.06347,5.802 1.60293,8.70158 0.57613,3.09668 -0.20724,-1.05793 0.68696,2.51888 0.037,0.1481 0,0.30532 0,0.45797 0,0.0763 0.0698,0.25986 0,0.229 -0.89284,-0.39455 -2.21517,-3.74645 -2.39971,-4.20779 -0.96883,-2.42206 -1.94867,-4.84443 -2.74786,-7.32764 -1.33947,-4.16193 -2.43318,-8.399 -3.66383,-12.5944 -1.25228,-4.26915 -1.28024,-3.84851 -2.0609,-7.55664 -0.0956,-0.45434 -0.13986,-0.91827 -0.22898,-1.37393 -0.013,-0.0665 0,0.13547 0,0.20321 0,0.33869 -0.0683,0.68433 0,1.01607 0.23885,1.16063 0.60851,2.29046 0.91595,3.43484 1.06649,3.96971 2.08306,7.95327 3.20585,11.90743 0.63308,2.22956 1.66846,4.35643 2.0609,6.64067 0.19335,1.12541 -0.66239,2.3156 -0.33427,3.40934 0.40309,1.34364 1.6451,2.2749 2.39517,3.46033 0.12906,0.20398 0.21672,0.44591 0.22898,0.68697 0.005,0.0962 -0.14423,-0.12918 -0.20443,-0.20443 -0.21285,-0.26607 -0.43509,-0.52735 -0.61331,-0.81776 -0.62934,-1.0255 -1.26832,-2.04893 -1.80641,-3.12511 -1.97893,-3.95785 -3.02451,-6.29401 -4.37629,-10.15625 -0.79948,-2.28423 -2.19786,-6.29049 -2.74787,-8.93057 -0.27637,-1.32658 -0.22899,-2.56284 -0.22899,-3.89281 0,-0.38165 -0.038,-0.76519 0,-1.14494 0.11097,-1.10973 0.21715,-1.12129 0.68696,-2.0609 0.22899,-0.45799 0.38936,-0.95728 0.68697,-1.37395 0.20559,-0.28784 1.50115,-1.59504 1.82951,-1.8295 0.36221,-0.25864 0.76945,-0.44802 1.14494,-0.68697 1.16008,-0.73824 2.2688,-1.56112 3.43484,-2.28989 5.73789,-3.58617 0.83451,-1.01036 2.74481,-1.37393 0.29616,-0.0564 0.82204,-0.32567 0.84246,-0.20965 0.0643,0.36521 -0.057,0.74605 0,1.11246 0.0967,0.62196 0.35451,1.21105 0.45799,1.83192 0.28285,1.69711 0.22898,3.33151 0.22898,5.03776 0,0.35677 0.23313,2.0158 -0.22898,2.51888 -0.17056,0.18568 -0.61387,-0.22942 -0.75421,-0.34493 -0.73899,-0.60823 -0.98258,-0.6489 -1.55544,-1.64862 -0.0751,-0.13103 0.0188,-0.3032 0,-0.45304 -0.50513,-4.02197 -0.72922,-2.94211 -0.22899,-7.54427 1.17916,-10.84829 0.35902,-2.94006 1.37393,-8.01462 0.11541,-0.57707 0.38369,-3.24302 0.91595,-4.1218 0.10669,-0.17614 -0.0404,0.41587 0,0.61781 0.098,0.49004 0.36776,0.94376 0.41188,1.44156 0.0943,1.06444 0,2.13723 0,3.20584 0,2.97686 0,5.95372 0,8.93058 0,1.22127 0,2.44254 0,3.66381 0,0.30532 0,0.61064 0,0.91596 0,0.0763 0.0618,0.27386 0,0.229 -0.31915,-0.2318 -0.60007,-0.52119 -0.83674,-0.83674 -0.18709,-0.24947 -0.32062,-0.54062 -0.41835,-0.83673 -0.34834,-1.05538 -0.70608,-2.11447 -0.91596,-3.20585 -0.26702,-1.38849 -0.22898,-2.73348 -0.22898,-4.12179 0,-0.83963 0,-1.67926 0,-2.51888 0,-0.61064 -0.10039,-1.22959 0,-1.83192 0.12963,-0.77782 1.11738,-1.65629 1.60291,-2.0609 0.50442,-0.42035 1.00791,-0.86727 1.60293,-1.14494 1.60407,-0.74856 4.05781,-0.53207 5.72473,-0.22899 0.30963,0.0563 0.6063,0.17269 0.91594,0.22899 0.53103,0.0965 1.07517,0.1159 1.60293,0.22898 1.3943,0.29878 2.7298,0.83561 4.1218,1.14495 1.57937,0.35097 3.19838,0.45798 4.80877,0.45798 0.45798,0 0.91596,0 1.37394,0 0.15245,0 0.3049,0 0.45735,0 0.0719,0 0.2493,-0.0636 0.21573,0 -0.051,0.0966 -0.1954,0.0977 -0.29311,0.14656 -2.51217,1.2561 1.64098,-0.75746 -2.42412,0.86857 -0.63389,0.25356 -1.2422,0.57196 -1.83191,0.91596 -0.32966,0.1923 -0.6033,0.4681 -0.91596,0.68696 -1.06107,0.74276 -2.21978,1.57489 -3.43483,2.06091 -0.32994,0.13198 -0.78943,-0.0711 -1.14494,0 -0.30861,0.0617 -0.60322,0.19378 -0.91596,0.22899 -1.29699,0.146 -2.22804,-0.31763 -3.1318,-1.2214 -1.37706,-1.37707 -2.1393,-2.29605 -2.74787,-4.1218 -0.0107,-0.0321 -0.32388,-0.77255 -0.22899,-0.91596 0.25426,-0.38424 0.45098,-0.8759 0.86495,-1.07816 1.97443,-0.96465 4.08865,-0.68697 6.1827,-0.68697 3.69287,0 7.33333,-0.57123 10.99147,0.22899 10.04087,2.19645 0.21781,0.39794 5.03778,1.60293 0.14809,0.037 0.31314,-0.0483 0.45797,0 1.47633,0.4921 0.46456,0.45797 1.14494,0.45797 0.83415,0 1.6683,0 2.50244,0 0.41178,0 0.83173,-0.0817 1.23532,0 0.0437,0.009 -0.0161,0.0921 0,0.13365 0.1873,0.48385 0.31736,0.39659 0.24664,0.8591 -0.25536,1.67025 -0.63417,1.91216 -2.0601,2.74396 -0.46483,0.27114 -1.54771,1.02124 -2.28989,1.14494 -0.22587,0.0376 -0.45798,0 -0.68697,0 -0.99228,0 -1.98457,0 -2.97686,0 -0.38164,0 -0.76486,-0.0345 -1.14494,0 -1.86868,0.16988 -1.72465,0.52514 -3.66383,-0.22899 -0.79303,-0.3084 -4.0097,-1.83329 -4.80875,-2.28989 -0.33137,-0.18935 -0.59398,-0.48207 -0.91596,-0.68697 -0.51918,-0.33038 -1.07883,-0.59343 -1.60293,-0.91595 -0.70315,-0.43271 -1.34405,-0.96431 -2.0609,-1.37394 -0.29638,-0.16936 -0.62324,-0.28235 -0.91596,-0.45798 -0.0926,-0.0555 -0.12426,-0.2028 -0.22898,-0.22898 -0.22215,-0.0555 -0.46243,0.0449 -0.68697,0 -0.16737,-0.0335 -0.29061,-0.19552 -0.45797,-0.229 -0.43652,-0.0873 -1.12371,0 -1.58628,0 -0.048,0 0.1046,-0.0275 0.14387,0 0.3549,0.24869 0.60489,0.67268 1.01518,0.81215 0.43361,0.1474 0.91997,-0.0605 1.37393,0 0.69756,0.093 1.36426,0.35846 2.06092,0.45798 0.37781,0.054 0.76414,-0.0254 1.14494,0 4.68802,0.31254 -0.18764,0.22899 4.80877,0.22899"
       id="path353-7"
       transform="rotate(155.74703,161.12274,165.92956)" />
  </g>
</svg>
